<?xml version="1.0" standalone="no"?>
<!DOCTYPE svg PUBLIC "-//W3C//DTD SVG 20010904//EN"
 "http://www.w3.org/TR/2001/REC-SVG-20010904/DTD/svg10.dtd">
<svg version="1.0" xmlns="http://www.w3.org/2000/svg"
 width="1024.000000pt" height="1024.000000pt" viewBox="0 0 1024.000000 1024.000000"
 preserveAspectRatio="xMidYMid meet">
<metadata>
Created by potrace 1.16, written by Peter Selinger 2001-2019
</metadata>
<g transform="translate(0.000000,1024.000000) scale(0.100000,-0.100000)"
fill="#000000" stroke="none">
<path d="M0 5120 l0 -5120 5120 0 5120 0 0 3612 c0 3337 -1 3613 -17 3630 -9
10 -11 18 -5 18 6 0 12 -6 15 -12 2 -7 5 6 5 29 1 39 -20 75 -34 60 -9 -9 6
-28 17 -22 5 4 9 1 9 -5 0 -7 -7 -9 -16 -6 -9 3 -20 6 -25 6 -6 0 -5 9 2 21 7
14 17 19 30 16 17 -4 19 0 19 39 0 32 -4 44 -14 44 -8 0 -18 5 -22 11 -4 8 0
9 15 4 20 -6 21 -3 20 39 -2 40 -6 47 -35 61 -17 8 -38 15 -46 15 -9 1 -8 5 4
14 10 7 15 16 11 19 -3 4 -1 7 6 7 7 0 10 -7 7 -18 -4 -13 2 -21 22 -28 l29
-11 0 51 c0 28 -2 45 -4 38 -3 -6 -9 -10 -14 -7 -5 4 -2 16 6 28 14 22 18 87
5 87 -13 0 -22 -34 -11 -38 6 -2 11 -8 11 -14 0 -16 -29 -40 -43 -35 -8 4 -7
6 3 7 10 0 6 6 -10 16 -25 15 -25 15 10 9 l35 -6 -25 20 c-20 17 -22 21 -7 21
9 0 17 4 17 9 0 15 -18 23 -25 11 -4 -6 -13 -7 -23 -1 -9 4 -24 6 -32 4 -13
-4 -13 -3 0 6 8 5 12 12 10 14 -3 2 -16 11 -30 21 l-25 17 28 -7 c36 -8 35 8
-2 24 -22 10 -28 18 -23 30 6 16 7 16 10 0 4 -21 32 -33 32 -14 0 8 -6 17 -13
19 -8 4 -8 6 0 6 6 1 26 -11 43 -26 26 -22 34 -24 42 -12 8 11 9 10 4 -5 -4
-10 -1 -25 5 -32 7 -9 8 -14 1 -14 -6 0 -12 6 -14 12 -3 9 -9 8 -21 -4 -22
-22 -21 -31 2 -23 11 3 22 1 26 -5 9 -15 30 10 32 39 1 13 -2 32 -8 43 -6 12
-6 18 1 18 15 0 8 99 -8 105 -10 4 -12 0 -8 -10 3 -9 2 -13 -4 -10 -6 3 -10 1
-10 -4 0 -6 -8 -11 -17 -11 -15 0 -14 2 3 15 19 14 18 14 -3 15 -13 0 -23 -5
-23 -11 0 -6 -7 -4 -15 5 -20 20 -19 25 4 19 22 -6 38 26 19 38 -7 4 -9 11 -5
16 5 4 12 1 17 -7 5 -8 12 -11 16 -7 4 4 -1 14 -12 22 -16 12 -17 14 -3 15 9
0 19 -7 23 -15 3 -8 13 -15 23 -15 16 0 16 2 3 11 -11 8 -12 12 -2 16 6 2 12
9 12 13 0 11 -74 0 -78 -12 -6 -13 -52 -9 -52 4 0 7 -7 2 -16 -11 -12 -17 -13
-26 -5 -34 6 -6 11 -16 11 -22 0 -5 -5 -3 -10 5 -9 13 -11 13 -20 0 -7 -10
-12 -12 -17 -4 -5 6 -14 13 -21 15 -10 3 -9 9 3 24 15 19 15 19 13 1 -2 -10 3
-21 11 -24 8 -3 11 0 7 7 -4 6 0 18 8 27 18 18 21 34 6 34 -5 0 -10 7 -10 16
0 13 3 14 14 5 11 -9 15 -8 20 5 5 13 9 14 20 5 11 -10 16 -8 21 8 3 12 13 21
21 21 8 0 12 5 9 10 -5 8 -11 8 -20 0 -10 -8 -14 -7 -18 2 -2 8 -8 9 -13 4 -5
-5 -4 -11 4 -13 6 -3 12 -9 12 -15 0 -6 -8 -7 -17 -4 -9 4 -20 1 -24 -6 -4 -7
-11 -9 -15 -5 -4 4 -2 13 4 19 15 15 16 28 2 28 -5 0 -10 -7 -10 -16 0 -8 -5
-12 -10 -9 -6 4 1 20 16 41 21 27 23 34 10 34 -9 0 -16 5 -16 11 0 6 9 9 20 6
23 -6 28 11 5 19 -8 3 -22 -2 -32 -12 -13 -12 -14 -19 -5 -22 16 -5 15 -20 -2
-38 -19 -19 -32 -18 -16 1 13 16 4 28 -50 65 -39 27 -54 44 -41 48 7 2 18 -4
25 -14 12 -16 14 -16 23 -1 8 16 11 15 32 -4 12 -11 25 -18 29 -14 4 3 -1 11
-11 16 -9 6 -15 15 -11 21 4 6 9 5 15 -3 6 -11 11 -11 20 -2 6 6 18 9 25 6 8
-3 14 0 14 7 0 6 -4 9 -8 6 -5 -3 -16 4 -25 15 -9 10 -22 19 -29 19 -7 0 -2
-9 12 -20 16 -12 20 -20 11 -20 -8 0 -25 9 -37 21 -14 13 -24 17 -29 10 -3 -6
1 -11 9 -11 9 0 16 -7 16 -15 0 -8 -4 -15 -10 -15 -5 0 -10 5 -10 10 0 6 -5
10 -11 10 -5 0 -7 -4 -4 -10 3 -5 1 -10 -5 -10 -7 0 -9 8 -5 19 3 12 0 23 -8
28 -8 4 -17 15 -20 23 -4 12 -6 12 -6 -2 -1 -9 4 -20 9 -23 6 -3 10 -13 10
-21 0 -8 -5 -12 -10 -9 -6 4 -8 10 -5 15 3 4 -3 11 -12 14 -24 9 -45 -26 -23
-39 6 -3 10 -11 10 -17 0 -6 -9 -3 -20 7 -11 10 -19 23 -17 29 2 5 -11 22 -27
38 -17 15 -26 28 -19 28 7 0 16 -6 20 -13 10 -16 43 -30 43 -18 0 5 -6 11 -14
14 -18 7 -17 47 1 47 7 0 13 5 13 11 0 6 -6 9 -13 7 -6 -3 -21 4 -32 15 l-20
20 20 -5 c11 -3 25 -7 30 -9 6 -2 11 -1 13 4 1 4 -1 7 -5 8 -5 1 -16 5 -25 10
-11 6 -19 5 -23 -2 -4 -6 -13 -8 -21 -5 -26 10 -14 -9 16 -26 20 -11 28 -22
24 -32 -7 -19 -28 -22 -22 -4 6 18 -60 60 -99 63 -18 1 -51 14 -73 29 -22 14
-41 24 -41 21 -1 -3 -2 -9 -3 -14 0 -5 -4 -13 -8 -17 -5 -4 -8 -12 -8 -18 0
-6 9 0 20 14 11 14 20 19 20 13 0 -7 7 -13 15 -13 16 0 20 -12 8 -23 -3 -4
-12 -2 -20 4 -8 7 -13 8 -13 1 0 -16 33 -24 41 -10 13 21 22 1 9 -21 -11 -21
-11 -21 -53 6 -23 15 -43 28 -45 28 -1 1 5 16 14 34 15 29 15 33 0 44 -10 8
-14 20 -10 35 6 22 24 31 24 12 0 -5 5 -10 11 -10 6 0 9 7 5 15 -3 8 -1 15 5
15 6 0 9 7 5 15 -3 8 -2 15 3 15 5 0 11 8 14 18 2 9 8 25 12 35 5 12 2 17 -10
17 -9 0 -14 4 -10 10 3 5 12 7 20 3 8 -3 15 0 15 7 0 6 -4 8 -10 5 -16 -10
-11 23 7 52 13 19 14 28 5 31 -20 6 -14 20 11 25 12 2 5 5 -18 5 -29 1 -36 -1
-25 -8 14 -9 7 -15 -14 -11 -5 1 -6 -5 -2 -14 3 -9 -1 -18 -10 -22 -13 -5 -12
-9 7 -29 12 -13 20 -26 17 -30 -3 -3 -16 5 -28 18 -17 17 -21 19 -17 6 4 -10
2 -18 -3 -18 -6 0 -10 -5 -10 -11 0 -6 9 -8 20 -4 11 4 20 2 20 -4 0 -6 -5
-11 -11 -11 -5 0 -7 -5 -3 -11 5 -8 9 -8 14 1 13 20 21 -6 11 -33 -8 -20 -15
-24 -32 -20 -15 4 -20 2 -15 -5 3 -6 2 -13 -4 -17 -6 -4 -8 -11 -5 -16 4 -5
-1 -9 -9 -9 -9 0 -16 5 -16 11 0 5 -5 7 -10 4 -6 -4 -8 -10 -5 -15 3 -5 1 -11
-5 -15 -6 -4 -8 -10 -5 -15 3 -5 1 -11 -5 -15 -11 -7 -4 -25 10 -25 5 0 7 7 4
15 -4 8 -1 15 5 15 13 0 14 -20 2 -39 -8 -12 -12 -12 -25 2 -9 8 -13 23 -10
31 4 10 0 18 -10 22 -10 4 -14 13 -11 23 3 9 -1 25 -8 35 -14 19 -11 66 4 66
14 0 23 -24 11 -28 -18 -6 -14 -32 4 -32 12 0 14 -7 9 -30 -4 -19 -3 -30 5
-30 6 0 10 6 9 13 0 6 2 22 6 35 6 17 11 20 20 12 9 -8 15 -8 20 0 3 5 -1 10
-9 10 -17 0 -19 13 -7 44 5 14 10 16 15 8 9 -15 26 -16 26 -2 0 6 -7 10 -16
10 -21 0 -12 41 17 82 17 24 18 28 5 28 -9 0 -15 -4 -14 -9 3 -8 -2 -11 -17
-11 -2 0 0 11 5 25 7 20 6 25 -5 25 -8 0 -15 4 -15 8 0 15 28 47 36 40 4 -4 1
-14 -6 -23 -7 -9 -8 -15 -2 -15 6 0 12 6 15 13 2 6 8 9 12 5 4 -4 2 -14 -4
-22 -8 -10 -9 -16 -1 -21 9 -6 14 1 11 18 0 4 7 8 16 9 10 0 23 2 30 2 19 2
28 16 9 16 -10 0 -14 5 -11 11 4 6 14 8 22 5 8 -3 12 -2 9 2 -2 4 2 15 9 25
11 16 16 16 34 5 23 -14 26 -24 12 -33 -6 -3 -14 3 -20 12 -10 17 -10 17 -11
1 0 -10 5 -18 10 -18 6 0 10 -8 10 -17 0 -13 -3 -14 -12 -5 -15 15 -28 16 -28
2 0 -5 7 -10 15 -10 8 0 14 -3 13 -7 -3 -16 15 -43 28 -43 8 0 14 -5 14 -11 0
-19 28 -39 52 -38 20 1 21 2 3 6 -20 5 -45 30 -45 45 0 4 7 5 15 2 8 -4 12
-10 9 -15 -3 -5 0 -9 5 -9 6 0 11 4 11 9 0 5 2 16 5 23 3 8 -4 24 -16 37 -21
22 -21 23 -3 57 15 27 16 36 6 43 -7 4 -10 15 -6 24 5 13 2 16 -10 11 -9 -3
-16 -1 -16 5 0 19 -39 12 -50 -10 -7 -11 -9 -23 -6 -27 3 -3 6 -1 6 4 0 5 4
15 9 23 7 11 12 10 28 -5 17 -16 18 -22 7 -42 -7 -15 -14 -20 -19 -12 -4 6 -1
17 5 25 10 12 9 15 -4 15 -10 0 -14 -4 -11 -10 3 -5 -3 -10 -13 -10 -11 0 -26
-10 -34 -22 l-15 -22 -13 23 c-11 21 -10 23 4 18 8 -3 18 -2 21 2 2 5 -4 11
-15 14 -24 6 -40 -31 -19 -44 7 -4 10 -11 7 -14 -4 -4 -17 2 -29 14 -13 12
-17 21 -11 21 7 0 12 5 12 10 0 21 -20 9 -26 -15 -3 -14 -11 -25 -16 -25 -6 0
-8 6 -5 13 2 6 10 29 18 50 10 29 17 36 31 31 10 -3 18 -1 18 5 0 6 -7 11 -16
11 -11 0 -14 6 -10 23 5 19 5 19 -6 -3 -14 -31 -34 -79 -42 -103 -3 -10 -11
-15 -17 -11 -8 5 -8 9 1 14 7 4 9 13 5 20 -4 7 -2 16 6 21 11 6 11 11 1 21 -9
9 -12 9 -12 -5 0 -20 -11 -22 -28 -5 -7 7 -12 9 -12 4 0 -4 7 -14 16 -23 8 -9
13 -22 9 -31 -3 -8 3 -21 12 -28 26 -19 -6 -19 -33 0 -20 14 -22 12 -43 -25
-12 -21 -26 -39 -32 -39 -5 0 -9 -7 -9 -15 0 -8 -4 -15 -10 -15 -16 0 -12 18
10 40 11 11 17 20 14 20 -4 0 -1 7 7 16 10 12 10 17 1 23 -21 13 9 86 33 84
20 -2 20 -1 1 13 -24 17 -37 18 -30 1 6 -17 -22 -55 -33 -43 -4 5 -3 11 4 13
7 2 9 11 6 19 -3 7 -8 12 -13 9 -11 -7 -55 44 -45 52 4 5 10 2 12 -4 3 -7 11
-13 19 -13 8 0 14 -4 14 -10 0 -5 6 -10 13 -10 6 1 -4 15 -23 32 -22 19 -30
32 -22 35 6 3 10 9 6 14 -8 13 -24 11 -22 -2 2 -6 -2 -13 -7 -15 -15 -6 -52
23 -42 32 4 4 12 3 19 -4 8 -8 16 -1 31 28 18 38 37 53 37 30 0 -5 -5 -10 -12
-10 -6 0 -8 -3 -5 -7 4 -3 2 -12 -4 -20 -16 -18 -1 -17 17 2 9 8 12 15 8 15
-3 0 -1 6 5 14 10 12 8 17 -9 26 -15 8 -19 15 -12 22 7 7 4 17 -9 32 -15 15
-16 22 -7 25 22 7 38 23 32 33 -3 5 -12 1 -19 -9 -12 -16 -14 -15 -13 15 1 17
4 32 7 32 16 0 8 41 -10 50 -13 7 -19 7 -19 0 0 -5 7 -10 15 -10 18 0 18 -5 5
-30 -11 -21 -47 -19 -63 2 -6 10 -8 9 -5 -2 3 -8 20 -20 39 -27 l34 -11 -29
-11 c-17 -7 -26 -16 -23 -25 3 -8 3 -17 -1 -21 -4 -4 -8 -11 -8 -16 -1 -5 -2
-12 -3 -16 -1 -8 -41 33 -41 43 0 3 6 4 13 1 7 -3 19 4 26 15 10 17 9 22 -6
34 -10 7 -26 16 -36 20 -14 4 -17 12 -13 30 4 14 2 24 -4 24 -5 0 -10 -6 -10
-13 0 -7 -7 -22 -16 -33 -14 -18 -15 -18 -8 6 6 22 5 23 -9 12 -9 -8 -20 -11
-26 -8 -10 6 -25 -22 -22 -41 1 -7 -3 -13 -9 -13 -6 0 -8 -5 -5 -11 5 -6 12
-4 21 8 8 11 13 13 14 5 0 -6 6 -11 13 -10 6 2 11 -3 9 -9 -2 -15 24 -17 33
-3 8 13 35 13 35 0 0 -5 -7 -10 -15 -10 -8 0 -15 -3 -15 -6 0 -11 28 -33 34
-27 3 4 6 1 6 -5 0 -22 -18 -21 -44 3 -25 23 -54 26 -40 4 3 -5 10 -7 15 -4
16 10 10 -23 -12 -64 -18 -35 -19 -43 -7 -55 9 -8 20 -11 28 -6 9 6 8 10 -6
18 -14 8 -15 13 -7 24 6 7 12 16 13 20 9 37 14 48 21 48 12 0 11 -7 -7 -46 -9
-19 -14 -38 -10 -41 4 -4 9 3 13 15 3 12 9 22 14 22 12 0 12 0 -11 -48 -11
-22 -20 -46 -20 -52 0 -5 -8 -10 -17 -10 -13 0 -14 3 -5 12 9 9 8 16 -5 30 -9
10 -22 18 -30 18 -7 0 -13 5 -13 10 0 6 5 10 10 10 6 0 10 6 10 14 0 8 6 16
13 19 6 2 8 8 4 13 -5 5 -13 1 -18 -8 -5 -10 -16 -15 -23 -12 -8 3 -17 0 -21
-5 -3 -6 -11 -8 -17 -5 -6 4 -14 0 -19 -7 -4 -7 -12 -10 -16 -5 -4 5 -2 11 5
13 6 3 12 9 12 14 0 14 -28 11 -32 -3 -3 -9 -9 -8 -22 5 -10 9 -21 17 -26 17
-4 0 -7 11 -6 25 0 14 4 25 7 25 4 0 9 9 12 20 3 13 0 20 -9 20 -8 0 -14 5
-14 11 0 6 7 8 16 5 9 -3 18 -6 20 -6 8 0 4 -36 -6 -46 -8 -8 -6 -15 4 -23 8
-7 12 -19 9 -27 -3 -8 0 -14 6 -14 6 0 11 4 11 10 0 5 7 7 15 4 8 -4 15 -1 15
6 0 7 8 9 19 5 14 -4 21 0 27 17 3 13 11 26 16 29 5 3 -2 13 -16 23 -29 19
-35 11 -8 -11 16 -13 15 -14 -5 -10 -13 3 -23 1 -23 -4 0 -5 -5 -9 -11 -9 -6
0 -8 9 -4 20 5 16 2 20 -14 20 -22 0 -22 0 6 49 2 2 9 -2 18 -9 13 -11 14 -10
9 4 -4 10 -1 16 9 16 8 0 18 -6 20 -12 3 -8 6 -5 6 6 1 15 -4 17 -28 13 -33
-7 -55 11 -45 37 3 9 1 16 -5 16 -6 0 -11 4 -11 10 0 5 7 7 15 4 8 -4 15 -1
15 5 0 6 -5 10 -11 9 -6 -2 -14 3 -16 11 -4 9 0 11 16 6 21 -6 26 1 22 33 -1
6 5 12 14 12 11 0 15 -6 11 -18 -4 -11 2 -22 14 -30 11 -7 20 -8 20 -3 0 5 -7
12 -16 15 -8 3 -12 11 -9 16 5 8 11 7 21 -1 11 -9 14 -8 14 6 0 11 5 15 15 11
8 -3 15 -1 15 3 0 16 -28 20 -34 5 -3 -9 -11 -12 -16 -9 -8 5 -7 11 1 21 8 10
8 14 0 14 -6 0 -11 -5 -11 -11 0 -6 -7 -9 -15 -6 -8 4 -17 2 -21 -4 -3 -6 -12
-8 -19 -5 -9 3 -19 -11 -29 -41 -15 -43 -15 -47 2 -60 16 -13 15 -14 -5 -10
-12 3 -22 2 -22 -2 1 -3 -2 -16 -6 -28 -10 -31 -29 -29 -21 1 3 13 7 30 9 38
2 7 2 10 0 6 -7 -12 -33 -10 -33 2 0 6 6 10 12 10 7 0 3 10 -10 22 -24 25 -30
23 -35 -13 -2 -13 -8 -23 -13 -21 -5 2 -8 12 -6 22 2 12 -2 20 -12 20 -8 0
-16 4 -18 9 -1 4 -14 11 -28 15 -19 5 -15 1 12 -16 40 -24 48 -38 23 -38 -8 0
-15 4 -15 8 0 5 -11 14 -25 20 -14 6 -25 8 -25 3 0 -4 12 -13 26 -19 14 -7 22
-17 19 -23 -5 -7 -11 -6 -21 2 -10 8 -14 8 -14 0 0 -6 5 -11 10 -11 6 0 10 -5
10 -11 0 -6 -7 -8 -15 -5 -8 3 -22 9 -30 12 -8 3 -15 1 -15 -5 0 -6 11 -13 25
-17 19 -5 24 -11 20 -25 -4 -11 -2 -19 5 -19 6 0 9 4 5 9 -3 5 -1 12 5 16 6 4
7 11 4 17 -5 7 0 9 14 6 23 -6 31 7 10 15 -7 2 -10 7 -6 11 3 4 16 2 28 -4 16
-9 19 -15 10 -25 -7 -8 -7 -15 -1 -19 5 -3 12 7 16 24 4 16 11 30 16 30 12 0
11 -14 -2 -27 -8 -8 -5 -14 11 -23 17 -9 19 -14 10 -26 -7 -7 -16 -11 -21 -8
-5 3 -14 -8 -21 -23 -7 -15 -15 -30 -18 -33 -3 -3 -7 -14 -8 -25 -5 -27 -7
-28 -31 -20 -16 5 -20 12 -15 31 5 18 2 24 -10 24 -9 0 -16 5 -16 10 0 13 3
13 35 -4 15 -8 22 -17 16 -21 -13 -7 -15 -25 -3 -25 9 0 34 62 27 69 -3 2 -5
-1 -5 -7 0 -7 -7 -12 -15 -12 -8 0 -15 5 -15 10 0 6 5 10 11 10 5 0 7 5 3 11
-5 8 -8 8 -13 0 -8 -12 -37 -11 -58 2 -7 5 -13 4 -13 -2 0 -5 6 -11 13 -14 6
-2 9 -7 6 -11 -8 -8 -78 29 -114 60 -15 13 -32 21 -37 18 -6 -4 -5 -10 3 -15
7 -4 11 -11 7 -14 -4 -4 -24 5 -45 19 -41 28 -53 32 -53 15 0 -5 4 -7 10 -4 5
3 10 1 10 -4 0 -6 4 -11 10 -11 16 0 60 -42 54 -52 -3 -5 -12 -4 -20 2 -7 7
-19 10 -26 7 -8 -3 -2 -10 15 -17 15 -7 27 -17 27 -22 0 -4 7 -8 16 -8 8 0 13
-4 10 -9 -7 -10 -56 9 -56 22 0 4 -7 7 -15 7 -8 0 -15 5 -15 11 0 5 -5 7 -10
4 -6 -4 9 -20 32 -37 24 -17 44 -32 46 -34 2 -1 -3 -15 -11 -30 -8 -16 -17
-22 -21 -16 -3 6 -2 13 4 17 13 8 13 35 1 35 -5 0 -12 -13 -16 -30 -6 -29 -21
-47 -31 -37 -3 3 0 15 6 28 11 19 10 24 -6 36 -9 7 -14 16 -9 20 4 5 10 2 12
-4 3 -7 9 -13 14 -13 16 0 10 15 -11 28 -18 11 -22 9 -32 -13 -6 -14 -16 -25
-21 -25 -5 0 -4 6 2 14 10 11 8 17 -9 29 -16 11 -18 17 -9 23 7 4 15 2 17 -4
4 -13 23 -17 21 -4 -3 20 3 30 21 35 11 3 20 11 20 18 0 10 -3 10 -12 1 -18
-18 -32 -14 -17 4 12 15 11 16 -10 9 -18 -6 -22 -4 -15 6 13 21 16 51 4 44 -5
-3 -10 -13 -10 -21 0 -8 -4 -14 -10 -14 -13 0 -13 17 0 25 17 11 11 23 -16 29
-22 6 -25 10 -19 38 5 21 4 28 -4 24 -6 -4 -11 -14 -11 -22 0 -11 -6 -13 -20
-9 -11 4 -20 2 -20 -4 0 -6 7 -11 15 -11 8 0 15 -4 15 -9 0 -5 11 -12 25 -15
24 -6 36 -26 15 -26 -5 0 -10 5 -10 12 0 6 -3 8 -6 5 -4 -3 -16 0 -28 8 -24
17 -36 19 -36 6 0 -5 8 -11 18 -13 9 -2 12 -6 7 -10 -6 -3 -19 1 -30 9 -14 11
-16 17 -7 20 6 3 10 9 7 13 -3 5 -12 7 -20 3 -8 -3 -15 0 -15 7 0 6 -4 8 -10
5 -5 -3 -10 -1 -10 4 0 6 -7 11 -15 11 -8 0 -15 5 -15 10 0 13 -1 13 45 -10
23 -12 41 -16 43 -10 2 5 12 10 22 10 10 0 21 7 24 16 9 24 -3 32 -15 11 -6
-9 -15 -15 -20 -11 -6 4 -6 11 2 20 10 12 8 18 -7 29 -23 17 -34 19 -34 5 0
-5 7 -10 15 -10 8 0 15 -4 15 -10 0 -15 -26 -12 -39 4 -8 10 -9 16 -1 21 13 8
13 25 0 25 -5 0 -10 -7 -10 -15 0 -17 -16 -20 -24 -6 -4 5 0 12 6 15 10 4 9 7
-2 15 -8 6 -22 15 -30 21 -10 7 -12 12 -4 18 14 9 28 52 17 52 -4 -1 -15 -17
-25 -36 -13 -29 -14 -36 -2 -41 10 -4 11 -10 3 -24 -7 -15 -6 -19 6 -19 8 0
15 -4 15 -10 0 -5 11 -12 25 -16 17 -4 25 -13 24 -28 0 -11 -3 -15 -6 -8 -2 6
-11 12 -19 12 -8 0 -14 5 -14 10 0 6 -7 10 -15 10 -8 0 -15 5 -15 11 0 5 -5 7
-10 4 -6 -4 -7 -11 -4 -17 9 -15 -36 1 -54 19 -22 21 -5 29 18 8 23 -21 26
-20 35 18 6 21 4 27 -8 27 -14 0 -14 3 0 31 13 26 13 33 2 40 -8 5 -19 9 -25
9 -15 0 -25 -38 -13 -46 5 -3 9 2 9 10 0 9 5 16 11 16 6 0 8 -7 5 -16 -3 -9
-9 -27 -12 -40 -3 -13 -10 -24 -16 -24 -5 0 -6 9 -3 20 4 11 2 20 -4 20 -6 0
-11 -4 -11 -10 0 -5 -7 -7 -15 -4 -8 4 -15 1 -15 -5 0 -6 8 -11 17 -11 13 0
14 -3 6 -11 -9 -9 -19 -6 -42 12 -31 25 -39 39 -21 39 6 0 10 -4 10 -10 0 -22
25 -8 26 15 2 26 -11 34 -19 13 -2 -7 -8 -9 -13 -5 -5 4 -2 12 6 17 12 7 12
12 3 21 -10 10 -14 9 -19 -4 -5 -15 -8 -15 -27 -2 -18 13 -22 12 -33 -3 -16
-21 -17 -32 -4 -32 6 0 10 7 10 15 0 8 5 15 11 15 6 0 8 -7 5 -16 -3 -9 -6
-20 -6 -25 0 -6 -9 -7 -20 -4 -11 4 -20 2 -20 -4 0 -6 7 -11 16 -11 14 0 14
-2 3 -16 -11 -14 -11 -18 4 -29 12 -8 14 -15 8 -20 -6 -3 -11 -2 -11 3 0 5
-11 15 -25 22 -14 7 -25 18 -25 23 0 5 6 4 14 -2 9 -8 16 -8 20 -2 4 5 -2 15
-11 21 -13 8 -14 13 -5 16 6 3 10 10 6 15 -10 17 -22 9 -29 -21 -5 -23 -10
-28 -19 -21 -7 6 -16 8 -19 4 -11 -11 -8 31 4 47 8 12 9 10 4 -7 -5 -18 -2
-23 11 -23 10 0 14 3 11 7 -4 3 -2 12 4 19 8 9 4 16 -12 25 -17 9 -24 9 -27 0
-2 -6 -8 -11 -14 -11 -5 0 -7 8 -3 19 4 12 0 21 -12 25 -10 4 -19 3 -21 -2 -1
-5 -8 -16 -15 -25 -11 -14 -14 -14 -31 -2 -11 8 -16 18 -11 22 4 5 10 2 12 -4
5 -15 23 -18 23 -5 0 5 -10 14 -22 20 -18 8 -19 11 -5 11 20 1 23 17 5 24 -8
4 -7 6 4 6 9 1 22 16 29 34 7 17 14 35 17 40 2 4 -1 7 -6 7 -9 0 -25 -37 -23
-52 2 -14 -15 -9 -38 11 -14 12 -18 22 -11 26 6 3 7 11 4 17 -5 7 -11 5 -20
-6 -8 -11 -14 -13 -19 -7 -3 6 -1 11 4 11 6 0 11 5 11 10 0 21 -20 9 -26 -16
-5 -17 -11 -23 -22 -19 -8 3 -18 1 -22 -5 -7 -12 -40 -3 -40 11 0 4 7 6 15 3
8 -4 15 -2 15 4 0 6 -5 12 -10 14 -7 2 -5 17 5 42 12 29 14 41 5 46 -9 6 -8
16 5 43 13 27 21 34 38 30 20 -4 21 -3 5 10 -11 8 -15 21 -11 35 3 14 1 22 -7
22 -7 0 -9 8 -4 23 9 30 14 34 24 17 5 -8 12 -11 16 -7 7 7 -23 36 -37 37 -4
0 -10 -11 -13 -25 -4 -14 -11 -25 -16 -25 -5 0 -7 -7 -4 -15 4 -8 1 -15 -6
-15 -7 0 -10 -6 -7 -14 3 -7 0 -19 -6 -25 -9 -9 -8 -15 5 -22 15 -8 16 -13 6
-29 -9 -14 -16 -16 -25 -8 -9 7 -13 7 -13 -1 0 -13 19 -35 35 -42 6 -2 0 -24
-13 -49 -13 -25 -21 -37 -18 -27 3 10 0 20 -9 23 -7 3 -11 12 -8 21 5 13 -11
32 -29 33 -3 0 -10 -14 -13 -31 -4 -18 -10 -27 -14 -22 -3 6 -16 13 -28 17
-23 7 -32 26 -13 26 6 0 10 -4 10 -8 0 -4 9 -8 19 -9 30 -2 34 36 5 49 -25 12
-34 34 -10 25 8 -3 17 1 20 10 9 22 -3 31 -15 13 -9 -12 -10 -12 -5 3 3 10 6
21 6 23 0 3 5 2 11 -2 6 -3 14 -1 18 5 10 15 44 2 37 -14 -11 -29 9 -23 21 6
12 28 11 33 -4 45 -10 7 -20 10 -23 8 -2 -3 2 -9 10 -14 19 -12 8 -22 -14 -14
-12 4 -16 13 -12 25 3 11 9 27 12 37 4 12 -3 22 -20 32 -26 13 -35 30 -16 30
5 0 7 7 4 15 -4 8 -1 15 6 15 6 0 8 5 5 10 -3 6 -1 10 5 10 7 0 10 7 6 15 -3
8 -1 15 4 15 6 0 10 5 10 10 0 21 -20 9 -26 -15 -3 -14 -10 -25 -15 -25 -5 0
-8 -3 -7 -7 4 -14 -26 -83 -35 -83 -10 0 -1 32 20 73 11 22 12 32 2 43 -6 8
-9 17 -6 21 4 3 9 -2 13 -11 3 -9 10 -13 15 -10 5 3 7 10 4 15 -4 5 -1 9 5 9
6 0 8 5 4 11 -4 8 -9 7 -15 -2 -8 -12 -10 -12 -18 0 -7 11 -12 7 -25 -15 -8
-16 -15 -24 -16 -19 0 6 -5 3 -10 -5 -8 -13 -11 -12 -24 5 -10 14 -11 22 -3
27 6 4 8 10 4 15 -5 4 -12 1 -18 -7 -8 -13 -10 -13 -18 -1 -13 20 -41 6 -54
-29 -6 -17 -15 -30 -19 -30 -12 0 -9 13 8 38 9 13 13 26 9 30 -3 3 -10 0 -15
-8 -6 -9 -10 -10 -10 -3 0 8 -21 11 -65 10 -64 -2 -65 -2 -76 -35 -6 -18 -13
-31 -15 -29 -3 2 0 17 6 32 12 31 4 48 -10 25 -7 -10 -10 -11 -10 -2 0 7 -13
12 -30 12 -17 0 -30 -5 -30 -12 0 -9 -3 -8 -10 2 -5 8 -12 11 -16 7 -4 -3 -3
-12 2 -20 5 -7 2 -6 -6 3 -21 20 -41 24 -51 8 -7 -10 -9 -10 -9 -1 0 10 -760
13 -3605 13 l-3605 0 0 -5120z m9330 3983 c0 -5 20 -17 45 -28 29 -13 41 -23
35 -29 -13 -13 -13 -26 -1 -26 16 0 63 -48 53 -54 -5 -3 -20 6 -32 19 -25 26
-40 32 -40 15 0 -5 7 -10 16 -10 13 0 15 -6 9 -27 -3 -16 -14 -36 -22 -45 -14
-16 -14 -18 -1 -18 9 0 18 10 22 22 4 18 8 20 18 10 15 -15 28 -16 28 -2 0 6
-7 10 -15 10 -8 0 -15 5 -15 10 0 14 7 13 36 -7 19 -12 22 -18 12 -24 -10 -7
-9 -11 4 -21 15 -11 15 -15 3 -32 -8 -11 -18 -16 -22 -12 -4 4 -2 11 5 15 10
6 7 12 -12 24 -30 20 -48 23 -21 4 10 -8 15 -19 11 -26 -4 -6 -3 -18 4 -26 8
-9 8 -15 0 -20 -6 -3 -8 -11 -5 -16 4 -5 -1 -9 -9 -9 -9 0 -16 -7 -16 -15 0
-9 -6 -12 -16 -8 -13 5 -13 7 -2 14 7 5 9 9 3 9 -5 1 0 5 13 10 41 17 17 59
-25 43 -15 -6 -16 -4 -5 9 9 11 10 18 2 23 -5 3 -10 2 -10 -4 0 -5 -3 -17 -6
-26 -5 -12 -2 -16 12 -15 32 4 45 0 39 -10 -3 -5 -12 -7 -20 -3 -8 3 -16 0
-16 -6 -4 -35 -20 -71 -31 -71 -6 0 -7 8 -3 18 4 9 8 22 9 27 1 6 5 16 9 23 5
8 2 12 -8 12 -9 0 -14 -4 -10 -9 3 -5 1 -12 -4 -15 -19 -12 -19 11 -1 42 20
32 20 32 0 32 -11 0 -20 5 -20 11 0 6 9 9 20 6 11 -3 20 -1 20 4 0 5 -5 9 -11
9 -5 0 -8 4 -5 9 3 5 -1 12 -10 15 -9 3 -14 12 -11 19 2 6 -2 20 -11 30 -14
15 -13 17 2 17 11 0 14 -5 10 -12 -5 -8 -2 -9 10 -5 16 6 17 3 12 -20 -6 -25
-5 -26 7 -11 10 13 16 15 25 6 9 -9 12 -8 12 5 0 9 -7 17 -16 17 -11 0 -14 6
-9 20 4 13 1 22 -9 26 -9 3 -16 10 -16 15 0 14 28 11 33 -3 3 -8 6 -6 6 5 1 9
-6 17 -14 17 -8 0 -15 5 -15 10 0 6 -3 9 -7 8 -5 0 -16 2 -25 6 -19 9 -24 26
-8 26 6 0 10 -3 10 -7z m190 -293 c0 -5 -4 -10 -10 -10 -5 0 -7 -7 -4 -15 4
-8 1 -15 -5 -15 -6 0 -11 -7 -11 -15 0 -8 5 -15 10 -15 6 0 10 7 10 15 0 8 5
15 10 15 6 0 10 -7 10 -15 0 -8 -5 -15 -11 -15 -6 0 -9 -7 -5 -15 3 -9 0 -15
-10 -15 -8 0 -12 5 -9 10 3 6 -1 10 -9 10 -9 0 -16 5 -16 10 0 14 -27 12 -34
-2 -5 -10 -7 -10 -12 0 -9 19 -18 15 -38 -19 -17 -30 -14 -58 4 -29 5 8 13 11
17 6 4 -5 2 -11 -4 -13 -19 -7 -16 -23 9 -44 11 -11 17 -19 11 -19 -5 0 -20
11 -33 25 -13 14 -31 25 -39 25 -13 -1 -12 -3 3 -15 16 -12 17 -18 8 -27 -13
-13 -16 -39 -4 -35 13 4 12 -13 -5 -48 -19 -41 -24 -42 -41 -15 -7 11 -8 20
-3 20 5 0 12 -6 14 -12 4 -10 8 -10 16 2 5 8 7 18 5 22 -3 4 0 8 6 8 6 0 8 5
5 10 -9 15 -25 12 -25 -5 0 -8 -4 -15 -10 -15 -14 0 -13 7 6 35 15 23 15 25 0
31 -9 3 -16 11 -16 17 0 7 4 7 12 -1 7 -7 19 -12 27 -12 11 0 9 5 -7 20 -23
22 -42 26 -42 10 0 -5 -5 -10 -11 -10 -8 0 -7 5 1 15 14 17 4 28 -57 62 -37
20 -44 34 -13 26 11 -3 20 -9 20 -14 0 -5 7 -9 15 -9 8 0 14 3 14 8 -3 16 2
23 11 17 8 -5 7 -11 -1 -21 -10 -12 -8 -17 7 -29 17 -12 21 -11 40 12 14 18
23 23 28 14 4 -6 12 -9 17 -5 5 3 7 10 4 15 -4 5 -1 9 5 9 6 0 9 4 6 8 -2 4
19 8 47 7 29 0 52 5 53 10 3 31 34 63 34 35z m-3807 -525 c84 -115 242 -334
352 -485 109 -151 240 -331 290 -400 123 -167 329 -460 344 -487 10 -20 6 -27
-41 -72 -41 -40 -55 -48 -64 -38 -7 6 -72 95 -145 197 -228 317 -432 600 -520
721 -46 63 -149 206 -229 317 -80 111 -147 201 -150 202 -7 0 -164 -218 -358
-495 -85 -121 -162 -229 -172 -240 -10 -11 -66 -87 -126 -170 -59 -82 -156
-217 -216 -300 -59 -82 -124 -168 -143 -190 -33 -37 -36 -39 -49 -22 -8 10
-18 18 -23 18 -20 -2 -42 12 -57 34 -16 25 -15 27 57 123 41 53 113 153 161
222 48 69 148 208 222 310 172 237 482 667 604 838 52 73 98 131 102 130 4 -2
76 -97 161 -213z m3713 150 c-3 -8 3 -19 14 -25 32 -17 46 -11 20 10 -40 31
-13 23 36 -10 41 -29 44 -30 44 -10 0 21 16 26 39 11 7 -5 10 -14 6 -21 -4 -6
1 -17 11 -25 16 -12 21 -12 31 2 7 9 16 13 20 9 4 -4 1 -11 -6 -15 -11 -7 -10
-11 5 -19 10 -6 15 -14 11 -18 -5 -5 -11 -4 -15 2 -11 16 -41 24 -47 14 -4 -6
-12 -10 -18 -10 -8 0 -8 3 1 9 11 6 10 12 -5 26 -13 13 -14 20 -5 23 14 4 7
22 -9 22 -6 0 -8 -4 -4 -9 3 -5 1 -13 -5 -16 -8 -5 -8 -11 0 -20 6 -7 8 -19 5
-26 -3 -10 6 -19 27 -28 22 -8 28 -15 19 -18 -8 -3 -17 -1 -19 6 -2 6 -10 11
-17 11 -8 0 -20 7 -29 15 -10 11 -17 12 -22 4 -3 -6 0 -15 7 -20 7 -4 11 -11
7 -14 -3 -3 -22 10 -42 30 -34 32 -56 44 -56 29 0 -4 10 -15 22 -25 11 -11 17
-19 12 -19 -6 0 -15 5 -22 12 -6 6 -15 8 -19 3 -5 -4 -2 -10 5 -12 6 -3 12 -9
12 -13 0 -5 -13 -1 -30 8 -32 18 -36 27 -20 37 6 4 9 2 8 -3 -2 -6 1 -9 7 -8
5 0 9 7 7 14 -2 6 3 12 10 12 9 0 9 3 -1 13 -11 10 -14 10 -18 0 -7 -19 -21
-16 -46 9 l-22 22 28 -17 c15 -10 28 -15 28 -12 1 3 2 8 3 13 1 4 7 17 14 28
6 12 8 24 5 28 -3 3 -1 6 6 6 8 0 11 -7 7 -15z m186 -2 c2 -5 25 -19 52 -33
36 -19 50 -22 53 -12 4 9 9 10 18 2 10 -8 14 -4 19 15 8 33 39 33 72 0 24 -25
25 -26 8 -60 -19 -40 -20 -41 -41 -20 -11 12 -12 19 -4 29 9 10 8 15 -5 20
-13 5 -14 9 -4 21 7 9 11 18 8 21 -3 3 -14 -10 -25 -29 l-20 -33 23 -27 c13
-15 28 -27 34 -27 6 0 8 -5 5 -10 -5 -8 -11 -8 -19 -1 -7 6 -16 8 -19 4 -4 -3
1 -12 11 -19 16 -13 16 -13 0 -14 -10 0 -18 -5 -18 -11 0 -5 -5 -7 -11 -3 -8
4 -7 9 2 15 11 6 11 11 2 20 -8 8 -14 6 -23 -11 -10 -18 -9 -24 1 -31 7 -4 10
-11 7 -15 -4 -3 -14 1 -23 10 -22 21 -45 20 -45 -1 -1 -17 -1 -17 -11 0 -8 14
-14 16 -24 7 -8 -7 -23 -9 -35 -5 -26 8 -26 -11 0 -25 11 -6 20 -16 19 -23 0
-9 -2 -9 -6 1 -2 6 -11 12 -19 12 -8 0 -14 -6 -15 -12 0 -10 -2 -10 -6 0 -4
10 -10 10 -29 -3 -24 -16 -24 -15 -12 5 8 12 20 19 31 16 24 -6 21 2 -14 35
-34 32 -49 35 -67 17 -16 -16 -16 -1 1 16 10 12 17 11 41 -1 23 -12 30 -12 37
-2 6 11 12 9 26 -6 20 -22 43 -30 43 -15 0 5 -8 14 -17 19 -17 10 -17 10 0 11
9 0 17 -6 17 -12 1 -8 7 -5 15 6 13 17 15 17 30 2 9 -9 24 -16 33 -16 15 1 15
3 -2 15 -11 8 -16 18 -11 22 4 5 10 2 12 -4 6 -16 23 -17 23 -2 0 6 -7 18 -16
27 -15 14 -17 14 -26 -1 -5 -9 -14 -17 -20 -17 -6 0 -3 9 7 20 16 18 16 20 1
26 -11 4 -15 13 -11 25 4 13 1 19 -9 19 -9 0 -16 6 -16 13 0 7 -7 4 -15 -7 -8
-11 -18 -16 -22 -12 -4 4 -1 11 7 16 12 8 12 10 -3 16 -9 3 -17 10 -17 15 0
11 17 12 22 2z m-3985 -550 c44 -60 132 -180 195 -268 63 -88 186 -259 273
-380 87 -121 190 -265 228 -320 38 -55 95 -134 126 -175 109 -143 159 -215
224 -322 121 -199 166 -339 174 -545 l6 -133 -111 0 -111 0 -5 33 c-3 17 -8
61 -11 97 -7 75 -42 184 -85 270 l-30 60 136 0 135 0 -20 29 -21 28 -131 -1
-131 -1 -19 35 c-10 19 -50 82 -88 140 l-70 104 47 28 c26 15 60 38 77 52 25
20 28 26 16 40 -7 9 -17 16 -21 16 -5 0 -39 -20 -76 -45 -36 -25 -69 -45 -73
-45 -3 0 -17 17 -31 38 -56 86 -278 400 -404 572 -74 102 -165 227 -202 278
-36 50 -69 92 -74 92 -4 0 -33 -39 -65 -87 -32 -49 -97 -140 -145 -203 -113
-151 -347 -475 -433 -600 l-68 -99 -65 44 c-36 25 -71 45 -77 45 -7 0 -20 -9
-29 -20 -17 -19 -15 -21 52 -61 39 -23 73 -45 75 -49 3 -5 -18 -41 -45 -82
-28 -40 -69 -100 -92 -133 l-42 -61 -116 4 c-77 3 -124 0 -138 -7 -12 -7 -22
-9 -22 -5 0 3 25 54 55 113 60 113 74 134 461 669 301 416 412 574 526 747 72
109 152 215 162 215 2 0 39 -48 83 -107z m1127 -477 c115 -48 67 -218 -51
-179 -32 11 -73 66 -73 98 0 35 46 85 88 94 1 1 18 -5 36 -13z m-2323 -24 c65
-58 27 -152 -61 -152 -30 0 -43 6 -64 31 -29 35 -33 67 -11 109 17 32 27 38
72 39 22 1 43 -8 64 -27z m-306 -26 c-14 -88 32 -190 119 -267 l41 -36 -30
-34 c-17 -19 -59 -74 -93 -122 -35 -48 -67 -87 -71 -87 -5 0 -14 7 -21 15 -6
8 -32 26 -56 40 -24 14 -44 32 -44 38 0 17 47 90 101 157 71 88 82 109 68 126
-6 8 -9 14 -5 14 4 0 0 12 -7 28 -15 31 -21 101 -12 143 10 45 17 34 10 -15z
m1435 -65 c0 -5 66 -101 148 -215 520 -726 674 -963 726 -1118 65 -195 38
-476 -63 -652 -39 -66 -128 -174 -177 -213 l-39 -31 -49 43 -49 42 43 39 c24
22 56 59 72 84 l28 44 -22 13 c-30 16 -65 16 -71 1 -3 -7 -6 -2 -7 12 -1 23
-1 24 -12 6 -16 -28 -41 -56 -50 -56 -5 0 4 24 18 53 15 28 30 63 34 77 6 24
9 25 91 25 l84 0 13 75 c7 41 11 89 9 105 -3 27 -4 26 -5 -7 -2 -27 -7 -38
-22 -43 -11 -3 -20 -10 -20 -15 0 -5 -10 -10 -22 -12 -13 -2 -22 -9 -20 -16 2
-13 -33 -17 -41 -4 -2 4 -2 1 -1 -5 2 -7 -3 -13 -12 -13 -8 0 -18 -10 -23 -22
-5 -14 -7 10 -4 63 13 209 -20 279 -338 719 -74 102 -152 213 -174 247 -22 35
-45 65 -51 67 -6 2 -35 -30 -64 -72 -122 -177 -173 -241 -183 -235 -6 4 -8 0
-4 -11 4 -10 3 -15 -3 -11 -5 3 -14 -4 -20 -15 -6 -11 -8 -20 -4 -20 4 0 5 -3
2 -6 -9 -8 -78 23 -78 35 0 6 -7 11 -15 11 -9 0 -34 9 -56 20 -22 12 -44 18
-50 14 -7 -4 -6 3 1 17 18 34 11 26 -73 -88 -42 -55 -85 -112 -96 -125 -11
-12 -27 -32 -35 -43 -11 -14 -18 -16 -23 -9 -9 13 -112 -31 -126 -53 -5 -7
-13 -10 -19 -7 -6 4 -14 0 -19 -7 -6 -10 -9 -10 -9 -2 0 35 92 195 242 418
299 444 542 800 581 853 36 48 57 64 57 43z m1496 -253 c50 -68 108 -152 129
-188 22 -36 46 -73 54 -84 15 -18 15 -18 -9 -11 -14 5 -30 8 -36 8 -6 0 -9 9
-6 19 8 31 -25 21 -72 -22 l-43 -40 -56 87 c-31 49 -83 122 -116 163 l-60 75
57 58 c31 31 59 57 62 57 3 0 47 -55 96 -122z m-198 -285 c172 -235 278 -505
299 -763 l8 -105 -70 3 c-93 4 -95 5 -95 49 0 98 -64 341 -102 390 -14 17 6
25 87 32 70 6 72 7 64 29 -8 21 -14 22 -98 22 l-90 0 -27 48 c-15 26 -44 76
-66 111 -21 35 -38 64 -36 66 92 64 118 88 109 103 -8 13 -40 10 -49 -5 -7
-10 -53 -28 -61 -24 -2 2 -8 -3 -12 -11 -7 -10 -9 -10 -9 2 0 13 85 120 95
120 2 0 25 -30 53 -67z m-2552 -59 l65 -46 -24 -32 c-13 -17 -43 -68 -68 -113
l-44 -83 -45 -1 c-57 -1 -124 2 -128 6 -9 8 163 315 176 315 2 0 32 -21 68
-46z m-379 -1 c53 -36 61 -47 44 -57 -9 -6 -88 -188 -96 -221 -2 -11 -18 -74
-34 -139 -28 -111 -47 -240 -54 -361 l-2 -50 -9 40 c-10 44 3 162 35 309 10
49 17 92 14 94 -3 3 -5 -2 -5 -10 0 -11 -6 -14 -20 -11 -22 6 -27 23 -7 23 7
0 4 7 -7 15 -11 8 -21 25 -23 37 -1 13 -4 37 -7 55 -4 25 -1 31 10 26 16 -6
19 13 4 22 -6 4 -8 16 -4 28 4 12 8 38 9 57 2 41 70 180 87 180 6 0 35 -16 65
-37z m3373 -45 c83 -180 136 -392 146 -587 2 -58 7 -121 9 -138 l4 -33 -73 0
-73 0 -7 93 c-16 217 -73 439 -151 586 -19 36 -31 67 -27 70 4 4 26 18 50 34
23 15 42 30 42 33 0 4 -8 0 -17 -7 -16 -13 -17 -12 -5 3 8 10 20 14 29 11 11
-4 14 -2 9 5 -4 7 -1 12 9 12 11 0 30 -29 55 -82z m-3125 -356 c-35 -87 -64
-206 -75 -306 -5 -48 -12 -91 -16 -95 -8 -8 2 169 12 193 5 13 4 17 -4 12 -7
-4 -11 9 -10 44 0 41 -4 54 -24 70 -12 11 -31 19 -40 20 -21 0 -21 3 -6 69
l11 51 88 0 88 0 -24 -58z m1476 -127 c136 -187 243 -344 267 -390 48 -95 50
-222 3 -312 -39 -77 -142 -183 -177 -183 -8 0 -28 31 -45 69 l-31 69 -34 -14
c-35 -15 -149 -19 -157 -6 -3 4 23 6 56 5 34 -1 51 1 37 3 -14 3 -49 16 -78
30 -29 13 -57 24 -62 24 -6 0 -10 4 -10 8 0 4 -14 12 -32 17 -67 20 -87 178
-37 282 23 47 90 110 127 120 19 4 21 8 10 15 -9 7 -7 8 10 5 12 -3 22 0 22 6
0 6 8 20 18 31 15 19 15 19 0 7 -22 -17 -38 -6 -38 25 0 17 -6 24 -19 24 -13
0 -21 8 -23 23 -2 16 -9 21 -26 20 -13 -2 -21 1 -17 7 3 6 2 10 -4 10 -5 0
-15 -8 -20 -17 -6 -10 -11 -13 -11 -7 0 21 141 215 152 208 7 -4 8 -3 4 4 -5
9 14 57 20 49 0 -1 43 -60 95 -132z m-1061 30 c0 -2 -7 -19 -14 -37 -64 -144
-95 -259 -98 -357 -1 -61 -4 -71 -17 -65 -9 3 -32 8 -52 11 -28 4 -35 9 -32
22 2 9 -3 30 -11 46 -9 17 -16 38 -16 47 0 9 -4 20 -10 23 -5 3 -10 16 -10 29
0 13 -9 33 -20 46 -11 13 -20 29 -20 37 0 25 -19 13 -23 -14 -2 -16 -2 -5 0
23 4 49 18 107 42 167 l11 27 135 0 c74 0 135 -2 135 -5z m2460 -460 c61 -32
72 -112 21 -157 -35 -32 -68 -35 -116 -12 -67 32 -76 114 -18 161 33 27 72 29
113 8z m350 -126 c0 -20 -34 -160 -46 -193 -5 -13 2 -16 44 -16 28 0 57 -3 66
-6 17 -6 22 -30 8 -36 -4 -1 -14 -25 -23 -53 l-15 -50 -174 -3 c-96 -1 -211 2
-255 7 l-80 10 83 -4 c65 -4 82 -2 82 10 0 7 -8 16 -17 18 -13 3 -12 5 5 6 16
1 26 -6 29 -19 6 -23 23 -26 41 -8 9 9 12 9 12 0 0 -13 58 -16 76 -4 6 4 10
15 8 25 -1 9 2 17 7 17 5 0 7 -11 5 -25 -3 -17 0 -25 9 -25 20 0 30 21 15 30
-10 6 -9 10 3 16 10 6 12 15 7 30 -6 16 -18 21 -53 22 -32 2 -47 -2 -51 -13
-4 -11 2 -15 22 -16 25 -1 25 -2 -6 -9 -18 -4 -42 -5 -53 -3 -10 3 -19 0 -19
-6 0 -6 8 -11 18 -12 12 0 13 -2 3 -6 -8 -3 -19 1 -25 9 -6 8 -18 17 -26 21
-10 3 -7 6 8 6 14 1 22 6 20 14 -3 8 -31 13 -81 15 -69 3 -77 5 -77 22 0 19 7
20 110 20 94 0 111 2 119 18 15 28 43 144 43 180 l0 32 79 0 c73 0 79 -1 79
-21z m-567 -28 c21 -21 -34 -237 -87 -344 -30 -59 -123 -204 -165 -257 l-20
-25 -70 69 -69 69 38 51 c77 104 128 229 150 371 6 38 16 73 23 78 14 9 188
-1 200 -12z m-2349 -48 c15 -129 84 -294 162 -390 32 -39 43 -64 27 -62 -12 1
-67 80 -112 158 -42 74 -77 166 -87 230 -4 22 -10 38 -15 36 -4 -3 -11 0 -15
6 -4 8 -3 9 4 5 8 -5 12 3 11 26 0 27 -2 30 -9 13 -7 -17 -9 -17 -9 -2 -1 15
-12 17 -96 17 -57 0 -95 4 -95 10 0 6 45 10 114 10 l113 0 7 -57z m379 -621
c151 -117 341 -198 520 -223 l87 -12 0 -84 c0 -49 -4 -83 -10 -83 -6 0 -10 31
-10 74 l0 74 -72 12 c-231 39 -430 136 -615 302 -43 39 -58 59 -51 66 8 8 24
-3 54 -37 24 -26 67 -66 97 -89z m1638 19 l117 -109 -34 -33 -34 -33 -43 42
c-23 23 -49 42 -58 42 -8 0 -29 -15 -47 -34 -70 -75 -243 -172 -410 -230 -119
-41 -286 -66 -326 -48 -21 9 -25 8 -29 -6 -3 -9 -5 11 -6 44 0 34 -4 76 -7 93
l-6 31 65 0 c87 0 241 41 352 94 103 49 231 141 290 208 22 26 45 46 50 47 6
0 62 -48 126 -108z m304 -175 c40 -17 55 -42 55 -90 0 -52 -35 -88 -87 -90
-48 -1 -77 20 -93 69 -13 40 -1 75 36 104 32 25 43 26 89 7z m-2414 -25 c57
-57 25 -137 -58 -146 -55 -6 -93 31 -93 90 0 38 50 85 90 85 22 0 41 -9 61
-29z m2008 -148 c-8 -9 -9 -14 -2 -10 11 7 103 -77 103 -94 0 -11 -43 -39
-125 -84 -38 -20 -74 -41 -80 -45 -17 -13 -209 -88 -242 -95 -18 -3 -40 -2
-50 4 -11 6 -13 11 -5 11 18 0 4 20 -14 20 -20 0 -44 24 -44 45 0 9 -5 13 -10
10 -6 -4 -19 -4 -28 0 -15 6 -15 8 3 16 13 5 3 6 -29 2 -73 -9 -75 -9 -76 2 0
6 25 13 57 17 137 18 344 94 473 176 71 44 90 51 69 25z m-775 -243 c67 -60
70 -150 6 -204 -64 -54 -153 -38 -192 34 -35 66 -11 147 53 181 52 28 93 24
133 -11z m501 -680 c75 -19 122 -42 176 -84 l26 -21 -41 -45 c-23 -25 -48 -56
-57 -69 l-15 -24 -45 26 c-134 79 -306 69 -397 -23 -70 -70 -99 -187 -71 -287
18 -67 105 -153 178 -178 70 -23 186 -17 254 15 l48 21 -3 65 -3 64 -142 0
-143 0 0 80 0 80 240 0 240 0 0 -255 0 -255 -255 0 c-232 0 -261 2 -318 21
-123 41 -207 114 -259 225 -59 126 -57 263 7 401 97 209 330 307 580 243z
m-1837 -444 c2 -357 0 -447 -10 -444 -7 3 -16 18 -19 34 l-7 29 -1 -27 c-1
-27 -3 -28 -53 -26 l-53 1 50 7 c34 5 40 7 20 8 -23 2 -35 10 -48 35 -10 18
-15 41 -11 50 3 10 1 17 -5 17 -6 0 -11 -4 -11 -10 0 -5 -4 -10 -10 -10 -5 0
-10 15 -11 33 -1 30 -1 31 -9 7 -10 -32 -12 -18 -10 103 l1 97 -28 1 c-15 1
-37 2 -48 3 -11 1 -76 4 -145 6 -111 3 -118 4 -60 10 l65 7 -65 1 c-36 1 -82
7 -103 13 -39 10 -102 68 -113 101 -3 10 -14 18 -24 18 -18 0 -34 36 -33 73 0
13 -5 17 -18 14 -15 -4 -20 2 -25 29 -3 19 -10 34 -15 34 -5 0 -9 10 -9 22 0
12 -3 18 -7 14 -5 -4 -11 -53 -14 -109 -4 -81 -6 -61 -7 101 l-2 202 100 0
100 0 0 -180 0 -179 220 -3 220 -3 0 181 c0 99 3 184 7 188 4 4 48 5 97 3 l91
-3 3 -448z m859 242 c54 -116 148 -317 209 -447 61 -130 111 -236 110 -237 0
0 -50 2 -110 5 l-109 6 -51 105 -51 105 -188 3 c-174 2 -188 4 -183 20 4 9 17
41 29 69 l22 53 123 0 c67 0 122 2 122 4 0 7 -60 146 -103 236 l-45 95 -55
-115 c-74 -153 -257 -559 -257 -571 0 -5 -45 -9 -100 -9 -60 0 -100 4 -100 10
0 6 31 76 68 158 38 81 127 274 198 429 l129 282 55 4 c30 2 85 4 122 4 l67 0
98 -209z m1971 200 c9 -12 112 -229 295 -623 68 -146 119 -256 124 -265 6 -11
-212 2 -223 13 -5 7 -30 55 -54 107 -24 52 -47 97 -51 100 -4 3 -87 4 -186 3
-98 -1 -184 0 -191 2 -9 3 -2 25 23 75 l35 70 120 0 c66 0 120 4 120 8 0 4
-29 73 -63 152 -35 80 -67 154 -71 164 -5 15 -30 -32 -100 -185 -179 -393
-229 -504 -230 -505 -1 0 -47 2 -103 5 l-102 6 100 210 c55 116 115 246 134
290 18 44 45 109 60 144 15 36 47 104 71 153 l44 88 119 0 c83 0 122 -4 129
-12z m-1175 -1180 c30 -12 33 -19 15 -47 -11 -18 -14 -18 -41 -5 -39 21 -82
15 -82 -10 0 -15 15 -26 60 -43 69 -26 85 -44 85 -89 0 -64 -83 -94 -164 -60
-41 17 -52 32 -36 51 10 13 16 12 42 -1 40 -21 93 -15 93 10 0 13 -15 24 -52
38 -89 33 -117 92 -67 141 37 37 78 41 147 15z m-1526 -15 c66 -31 93 -116 58
-183 -22 -43 -63 -60 -145 -60 l-70 0 0 136 0 137 61 -7 c33 -3 77 -13 96 -23z
m370 16 c73 -27 97 -96 49 -144 l-23 -23 30 -52 29 -51 -33 3 c-28 2 -38 10
-57 46 -19 34 -29 42 -53 42 -28 0 -29 -1 -22 -45 6 -44 5 -45 -21 -45 l-26 0
0 140 0 140 49 0 c27 0 62 -5 78 -11z m424 -12 c53 -36 82 -85 76 -131 -20
-146 -220 -170 -272 -32 -47 123 88 236 196 163z m341 17 c68 -12 106 -76 82
-139 -9 -24 -58 -45 -104 -45 l-40 0 0 -45 c0 -41 -2 -45 -25 -45 l-25 0 0
140 0 140 38 0 c20 0 54 -3 74 -6z m888 -134 l0 -140 -30 0 -30 0 0 140 0 140
30 0 30 0 0 -140z m350 110 c0 -28 -2 -30 -40 -30 l-40 0 0 -110 0 -110 -25 0
-25 0 0 110 0 110 -40 0 c-38 0 -40 2 -40 30 l0 30 105 0 105 0 0 -30z m632
-110 l5 -30 -179 0 -178 0 0 30 0 30 174 0 174 0 4 -30z"/>
<path d="M4300 2350 l0 -93 52 5 c61 6 88 32 88 84 0 50 -35 85 -93 91 l-47 6
0 -93z"/>
<path d="M5102 2430 c-31 -13 -52 -66 -40 -101 12 -36 37 -57 76 -65 26 -5 36
-1 62 24 40 41 41 83 1 123 -30 30 -58 35 -99 19z"/>
<path d="M8005 10030 c-3 -5 1 -10 9 -10 9 0 16 -5 16 -11 0 -6 -6 -9 -12 -6
-7 2 -19 -3 -26 -12 -10 -14 -11 -12 -6 13 5 21 4 27 -5 21 -7 -4 -10 -9 -7
-12 8 -9 -23 -35 -33 -28 -6 3 -15 -4 -22 -17 -9 -16 -9 -23 0 -26 6 -2 11 -8
11 -14 0 -5 -9 -6 -20 -3 -15 5 -20 2 -21 -12 0 -10 -3 -13 -6 -5 -5 14 -23
16 -23 3 0 -14 33 -23 40 -11 10 17 40 0 37 -21 -2 -10 -7 -22 -12 -26 -4 -5
-5 2 -2 14 3 13 1 26 -4 29 -5 3 -9 -2 -9 -11 0 -12 -6 -15 -20 -10 -23 7 -26
-3 -5 -19 12 -9 12 -14 0 -29 -8 -12 -15 -14 -20 -8 -3 6 -1 11 4 11 6 0 11 5
11 10 0 18 -19 10 -25 -11 -5 -14 -2 -25 6 -30 21 -13 26 -11 33 17 5 19 11
24 25 19 13 -4 21 1 26 17 4 13 7 26 6 31 -1 10 17 9 24 -2 3 -5 0 -13 -5 -16
-7 -5 -5 -12 7 -21 21 -16 47 -19 38 -4 -4 6 -11 8 -16 5 -5 -4 -9 1 -9 9 0 9
5 16 10 16 15 0 6 70 -11 81 -19 12 -29 11 -29 -1 0 -5 7 -10 15 -10 8 0 15
-5 15 -11 0 -5 -13 -2 -30 8 -16 9 -30 21 -30 26 0 4 5 5 11 1 6 -3 15 0 20 7
8 12 10 12 18 0 7 -11 11 -10 19 5 9 16 12 16 28 4 16 -14 17 -13 11 4 -6 14
-4 17 9 12 8 -3 20 -6 25 -6 5 0 9 -5 9 -11 0 -6 -7 -9 -15 -5 -8 3 -15 1 -15
-4 0 -6 5 -10 11 -10 5 0 7 -5 3 -11 -4 -8 -9 -7 -15 2 -5 8 -9 10 -9 5 0 -5
-7 -3 -15 4 -9 7 -19 10 -23 6 -4 -4 1 -12 11 -17 9 -6 17 -15 17 -20 0 -6 -4
-7 -10 -4 -5 3 -10 1 -10 -4 0 -6 4 -11 10 -11 6 0 6 -9 0 -25 -6 -15 -6 -25
0 -25 10 0 25 39 22 57 -2 8 3 10 13 7 19 -8 19 -10 -4 -42 -23 -33 -35 -72
-23 -72 5 0 21 -11 35 -25 14 -15 28 -22 31 -16 4 5 -7 18 -24 27 -16 10 -30
22 -30 26 0 4 11 27 25 52 28 50 31 61 13 50 -8 -5 -9 -2 -5 10 4 10 7 22 7
28 0 6 7 7 15 4 8 -3 22 -9 30 -12 8 -3 15 -2 15 3 0 9 -70 47 -79 43 -2 -1
-7 2 -10 7 -16 21 -39 34 -46 23z"/>
<path d="M8305 9893 c-15 -27 -17 -37 -7 -41 14 -4 16 -22 3 -22 -5 0 -17 7
-26 17 -14 14 -18 14 -26 2 -12 -19 -11 -42 1 -34 6 4 8 11 5 16 -11 16 12 10
36 -11 13 -10 18 -19 12 -20 -7 0 -12 -3 -12 -7 1 -5 0 -11 -1 -15 -1 -5 -3
-13 -4 -20 -1 -15 -26 -23 -26 -9 0 6 -7 11 -15 11 -8 0 -15 5 -15 10 0 6 -7
10 -15 10 -8 0 -15 5 -15 10 0 14 7 13 36 -6 27 -18 36 -14 41 16 3 21 -13 28
-19 9 -3 -8 -16 -6 -42 5 -31 13 -36 19 -27 30 8 10 9 16 1 21 -5 3 -10 5 -11
3 -7 -30 -5 -44 8 -53 11 -9 13 -14 5 -19 -17 -10 -15 -26 2 -26 8 0 21 -6 28
-12 14 -13 55 -38 62 -38 2 0 6 9 9 21 3 12 10 18 16 14 8 -4 7 -13 -1 -28 -7
-12 -11 -25 -10 -29 1 -5 -2 -8 -8 -8 -5 0 -10 -4 -10 -10 0 -21 20 -9 26 15
7 29 12 30 38 10 22 -17 40 -20 31 -6 -3 5 0 13 6 17 6 3 15 1 19 -6 5 -8 10
-8 14 -2 3 5 -1 13 -10 16 -10 4 -14 12 -10 22 4 10 -1 22 -11 30 -25 19 -2
17 25 -2 27 -19 24 -22 46 39 10 26 22 47 27 47 12 0 11 -7 -2 -32 -6 -11 -8
-22 -5 -25 3 -4 15 15 27 41 20 46 20 48 2 61 -15 12 -18 11 -21 -1 -3 -10
-11 -13 -25 -9 -22 6 -22 6 -2 -11 14 -11 16 -18 8 -21 -7 -3 -13 -11 -13 -19
0 -9 -4 -13 -9 -10 -5 3 -7 16 -5 29 4 21 4 20 -6 -2 -7 -16 -7 -27 -1 -31 12
-6 3 -50 -9 -50 -5 0 -16 7 -25 16 -15 15 -17 15 -30 -2 -12 -17 -12 -20 4
-27 15 -7 16 -13 7 -33 -15 -32 -28 -30 -21 4 6 27 6 27 -7 4 -20 -32 -30 -15
-12 20 8 16 12 33 9 38 -3 6 -1 10 6 10 7 0 9 3 6 7 -4 3 -2 12 4 20 9 10 8
13 -4 13 -8 0 -18 6 -20 13 -4 9 -8 9 -15 -2 -19 -27 -20 6 -2 37 11 18 16 32
12 32 -4 0 -16 -17 -27 -37z"/>
<path d="M8805 9590 c-4 -16 -11 -30 -16 -30 -6 0 -7 -5 -3 -11 3 -6 0 -16 -7
-21 -8 -5 -10 -11 -4 -14 31 -14 39 -24 29 -34 -8 -8 -15 -8 -25 2 -14 15 -44
29 -68 34 -8 1 -18 8 -22 16 -4 7 -11 9 -16 4 -4 -4 -1 -12 7 -16 41 -25 42
-26 29 -54 -11 -23 -10 -28 6 -40 13 -9 15 -15 6 -20 -9 -6 -9 -11 0 -22 14
-17 39 -19 39 -3 0 6 -7 8 -16 5 -13 -5 -15 -1 -10 18 4 16 1 26 -10 30 -9 4
-12 11 -7 18 4 7 8 17 8 22 0 5 6 11 13 14 6 2 12 -1 12 -8 0 -6 4 -9 8 -6 9
5 62 -36 62 -49 0 -4 -7 -5 -15 -1 -8 3 -15 1 -15 -3 0 -5 5 -11 12 -13 6 -2
8 -9 4 -16 -5 -8 -12 -6 -25 6 -12 12 -15 21 -8 30 6 8 6 12 -1 12 -22 0 -23
-35 -2 -52 25 -20 40 -23 40 -7 0 6 9 8 20 4 12 -4 20 -2 20 5 0 7 8 10 20 7
25 -6 26 1 3 19 -13 9 -14 13 -4 14 7 0 11 6 7 15 -3 8 -2 15 3 15 4 0 12 16
18 35 6 19 8 35 4 35 -4 0 -13 -16 -20 -35 -7 -19 -17 -35 -23 -35 -5 0 -7 7
-4 16 4 10 1 14 -6 12 -7 -3 -13 -11 -13 -18 0 -17 -21 -24 -30 -11 -3 6 -1
11 4 11 6 0 11 8 11 18 0 10 5 23 12 30 7 7 8 12 4 12 -5 0 -3 7 4 15 7 8 9
15 5 15 -4 0 -2 6 4 14 7 8 8 17 3 20 -5 3 -15 -15 -22 -39 -7 -25 -19 -45
-26 -45 -8 0 -14 5 -14 10 0 6 5 10 11 10 6 0 9 6 6 14 -3 7 0 19 6 25 6 6 7
11 3 11 -5 0 -3 6 3 14 8 9 8 16 2 20 -5 3 -12 -7 -16 -24z"/>
</g>
</svg>
